<svg width="61" height="60" viewBox="0 0 61 60" fill="none" xmlns="http://www.w3.org/2000/svg">
<g clip-path="url(#clip0_0_5395)">
<circle cx="30.5885" cy="30.0001" r="30.0001" fill="#F3BA2F"/>
<path d="M22.8201 26.8084L30.5885 19.0401L38.3605 26.8118L42.8805 22.2918L30.5885 10.0001L18.3004 22.2881L22.8203 26.8081L22.8201 26.8084ZM10.5884 30.0001L15.1086 25.4793L19.6284 29.9992L15.1082 34.5194L10.5884 30.0001ZM22.8201 33.1923L30.5885 40.9602L38.3603 33.1886L42.8827 37.7063L42.8805 37.7087L30.5885 50.0002L18.3004 37.7122L18.294 37.7058L22.8206 33.1918L22.8201 33.1923ZM41.5485 30.0021L46.0687 25.4819L50.5885 30.0017L46.0685 34.5219L41.5485 30.0021Z" fill="white"/>
<path d="M35.1728 29.9977H35.1747L30.5885 25.411L27.1986 28.8001L26.8091 29.1897L26.0059 29.9931L25.9995 29.9993L26.0059 30.0058L30.5885 34.5892L35.1751 30.0025L35.1773 29.9999L35.1731 29.9977" fill="white"/>
</g>
<defs>
<clipPath id="clip0_0_5395">
<rect width="60.0002" height="60" fill="white" transform="translate(0.588379)"/>
</clipPath>
</defs>
</svg>
