<svg width="60" height="60" viewBox="0 0 60 60" fill="none" xmlns="http://www.w3.org/2000/svg">
<path d="M59.946 29.9895C59.946 46.4761 46.5818 59.8403 30.0953 59.8403C13.6093 59.8403 0.244507 46.4761 0.244507 29.9895C0.244507 13.5033 13.6093 0.138794 30.0953 0.138794C46.5818 0.138794 59.946 13.5033 59.946 29.9895Z" fill="#1BA27A"/>
<path d="M44.1051 15.1913H15.8395V22.0152H26.5604V32.0451H33.3843V22.0152H44.1051V15.1913Z" fill="white"/>
<path d="M30.037 33.1134C21.1684 33.1134 13.9782 31.7098 13.9782 29.9782C13.9782 28.2468 21.1681 26.843 30.037 26.843C38.9057 26.843 46.0955 28.2468 46.0955 29.9782C46.0955 31.7098 38.9057 33.1134 30.037 33.1134ZM48.0684 30.5009C48.0684 28.268 39.9955 26.4582 30.037 26.4582C20.0788 26.4582 12.0054 28.268 12.0054 30.5009C12.0054 32.4671 18.2654 34.1054 26.5606 34.4683V48.8666H33.3839V34.474C41.743 34.1224 48.0684 32.4773 48.0684 30.5009Z" fill="white"/>
</svg>
