<svg width="13" height="13" viewBox="0 0 13 13" fill="none" xmlns="http://www.w3.org/2000/svg">
<path d="M12.2823 11.2309L7.55132 6.5L12.2823 1.76906C12.4217 1.62964 12.5 1.44056 12.5 1.2434C12.5 1.04623 12.4217 0.857149 12.2823 0.717736C12.1428 0.578322 11.9538 0.5 11.7566 0.5C11.5594 0.5 11.3704 0.578322 11.2309 0.717736L6.5 5.44868L1.76906 0.717736C1.62964 0.578322 1.44056 0.5 1.2434 0.5C1.04624 0.5 0.85715 0.578322 0.717736 0.717736C0.578322 0.857149 0.5 1.04623 0.5 1.2434C0.5 1.44056 0.578322 1.62964 0.717736 1.76906L5.44868 6.5L0.717736 11.2309C0.578322 11.3704 0.5 11.5594 0.5 11.7566C0.5 11.9538 0.578322 12.1428 0.717736 12.2823C0.85715 12.4217 1.04623 12.5 1.2434 12.5C1.44056 12.5 1.62964 12.4217 1.76906 12.2823L6.5 7.55132L11.2309 12.2823C11.3704 12.4217 11.5594 12.5 11.7566 12.5C11.9538 12.5 12.1428 12.4217 12.2823 12.2823C12.4217 12.1428 12.5 11.9538 12.5 11.7566C12.5 11.5594 12.4217 11.3704 12.2823 11.2309Z" fill="white"/>
</svg>
