<?xml version="1.0" encoding="UTF-8"?>
<svg xmlns="http://www.w3.org/2000/svg" xmlns:xlink="http://www.w3.org/1999/xlink" viewBox="0 0 18 18" width="18px" height="18px">
<g id="surface75449210">
<path style=" stroke:none;fill-rule:nonzero;fill:rgb(100%,100%,100%);fill-opacity:1;" d="M 15.097656 3.105469 C 14.859375 3.113281 14.640625 3.238281 14.511719 3.441406 L 7.738281 13.804688 L 3.351562 10.011719 C 3.164062 9.816406 2.882812 9.742188 2.621094 9.824219 C 2.363281 9.90625 2.167969 10.125 2.125 10.390625 C 2.078125 10.660156 2.1875 10.929688 2.40625 11.09375 L 7.425781 15.433594 C 7.582031 15.570312 7.789062 15.628906 7.996094 15.597656 C 8.199219 15.566406 8.382812 15.449219 8.492188 15.277344 L 15.726562 4.230469 C 15.882812 4.003906 15.894531 3.710938 15.761719 3.472656 C 15.628906 3.234375 15.371094 3.09375 15.097656 3.105469 Z M 15.097656 3.105469 "/>
</g>
</svg>
