<svg width="82" height="17" viewBox="0 0 82 17" fill="none" xmlns="http://www.w3.org/2000/svg">
<g clip-path="url(#clip0_0_5421)">
<path d="M72.209 8.56598C71.7918 8.29077 71.3321 8.09508 70.8969 7.85045C70.6146 7.69144 70.314 7.55074 70.069 7.34892C69.6518 7.00644 69.7377 6.33372 70.1733 6.04014C70.7987 5.62427 71.8347 5.85663 71.9452 6.70678C71.9452 6.72509 71.9636 6.73736 71.982 6.73736H72.9264C72.951 6.73736 72.9694 6.719 72.9632 6.69455C72.9142 6.1074 72.6871 5.61814 72.2704 5.30623C71.8715 5.00655 71.418 4.84753 70.9332 4.84753C68.4378 4.84753 68.2108 7.48348 69.5536 8.31526C69.707 8.41311 71.0253 9.0736 71.4916 9.36104C71.9574 9.64848 72.1047 10.1745 71.9022 10.5903C71.7181 10.9695 71.24 11.2325 70.7619 11.2019C70.2404 11.1714 69.8359 10.89 69.6947 10.4497C69.6702 10.3702 69.6579 10.2173 69.6579 10.15C69.6579 10.1317 69.6395 10.1133 69.6211 10.1133H68.5974C68.579 10.1133 68.5605 10.1317 68.5605 10.15C68.5605 10.89 68.7446 11.2998 69.2473 11.6729C69.7193 12.0276 70.2342 12.1744 70.768 12.1744C72.1661 12.1744 72.8896 11.3854 73.0364 10.5659C73.1653 9.76469 72.9264 9.04302 72.209 8.56598Z" fill="white"/>
<path d="M27.7483 4.98218H27.2945H26.7979C26.7795 4.98218 26.7672 4.99441 26.761 5.00664L25.921 7.77102C25.9088 7.80774 25.8597 7.80774 25.8475 7.77102L25.0074 5.00664C25.0013 4.98829 24.989 4.98218 24.9706 4.98218H24.474H24.0202H23.4071C23.3886 4.98218 23.3702 5.00052 23.3702 5.01887V12.0766C23.3702 12.0949 23.3886 12.1133 23.4071 12.1133H24.431C24.4494 12.1133 24.4678 12.0949 24.4678 12.0766V6.71296C24.4678 6.67016 24.5292 6.66407 24.5414 6.70074L25.3876 9.48348L25.4489 9.67917C25.455 9.69753 25.4673 9.70367 25.4857 9.70367H26.2706C26.2889 9.70367 26.3012 9.69139 26.3073 9.67917L26.3686 9.48348L27.2148 6.70074C27.2271 6.65793 27.2884 6.67016 27.2884 6.71296V12.0766C27.2884 12.0949 27.3068 12.1133 27.3252 12.1133H28.3492C28.3675 12.1133 28.386 12.0949 28.386 12.0766V5.01887C28.386 5.00052 28.3675 4.98218 28.3492 4.98218H27.7483Z" fill="white"/>
<path d="M56.5301 4.98218C56.5117 4.98218 56.4994 4.99441 56.4933 5.00664L55.6536 7.77102C55.6413 7.80774 55.5922 7.80774 55.58 7.77102L54.7398 5.00664C54.7337 4.98829 54.7214 4.98218 54.703 4.98218H53.1455C53.127 4.98218 53.1086 5.00052 53.1086 5.01887V12.0766C53.1086 12.0949 53.127 12.1133 53.1455 12.1133H54.1697C54.1881 12.1133 54.2065 12.0949 54.2065 12.0766V6.71296C54.2065 6.67016 54.2678 6.66407 54.2801 6.70074L55.1259 9.48348L55.1873 9.67917C55.1934 9.69753 55.2057 9.70367 55.2241 9.70367H56.009C56.0274 9.70367 56.0397 9.69139 56.0458 9.67917L56.1072 9.48348L56.9534 6.70074C56.9657 6.65793 57.0271 6.67016 57.0271 6.71296V12.0766C57.0271 12.0949 57.0455 12.1133 57.0639 12.1133H58.0876C58.106 12.1133 58.1245 12.0949 58.1245 12.0766V5.01887C58.1245 5.00052 58.106 4.98218 58.0876 4.98218H56.5301Z" fill="white"/>
<path d="M43.3227 4.98218H41.4157H40.3917H38.4848C38.4664 4.98218 38.448 5.00052 38.448 5.01887V5.89954C38.448 5.9179 38.4664 5.93626 38.4848 5.93626H40.355V12.0766C40.355 12.0949 40.3733 12.1133 40.3917 12.1133H41.4157C41.4341 12.1133 41.4525 12.0949 41.4525 12.0766V5.93626H43.3227C43.3411 5.93626 43.3594 5.9179 43.3594 5.89954V5.01887C43.3594 5.00052 43.3472 4.98218 43.3227 4.98218Z" fill="white"/>
<path d="M49.3625 12.1132H50.2942C50.3187 12.1132 50.3371 12.0888 50.331 12.0643L48.4057 4.9821C48.3996 4.96376 48.3873 4.95764 48.3689 4.95764H48.0134H47.3879H47.0323C47.0139 4.95764 47.0016 4.96988 46.9955 4.9821L45.0702 12.0643C45.064 12.0888 45.0824 12.1132 45.107 12.1132H46.039C46.0574 12.1132 46.0696 12.101 46.0758 12.0888L46.6338 10.0277C46.6398 10.0094 46.6521 10.0032 46.6705 10.0032H48.7309C48.7493 10.0032 48.7616 10.0155 48.7678 10.0277L49.3256 12.0888C49.3318 12.101 49.3502 12.1132 49.3625 12.1132ZM46.9158 8.99414L47.6639 6.23584C47.6761 6.19917 47.7252 6.19917 47.7375 6.23584L48.4855 8.99414C48.4916 9.01859 48.4732 9.04304 48.4487 9.04304H46.9526C46.928 9.04304 46.9097 9.01859 46.9158 8.99414Z" fill="white"/>
<path d="M65.2557 12.1132H66.1874C66.212 12.1132 66.2304 12.0888 66.2242 12.0643L64.299 4.9821C64.2929 4.96376 64.2806 4.95764 64.2622 4.95764H63.9068H63.2814H62.9255C62.9071 4.95764 62.8948 4.96988 62.8887 4.9821L60.9635 12.0643C60.9573 12.0888 60.9757 12.1132 61.0003 12.1132H61.9325C61.9509 12.1132 61.9631 12.101 61.9693 12.0888L62.5272 10.0277C62.5333 10.0094 62.5456 10.0032 62.564 10.0032H64.6242C64.6426 10.0032 64.6549 10.0155 64.661 10.0277L65.2189 12.0888C65.225 12.101 65.2373 12.1132 65.2557 12.1132ZM62.8089 8.99414L63.557 6.23584C63.5693 6.19917 63.6184 6.19917 63.6307 6.23584L64.3788 8.99414C64.3849 9.01859 64.3665 9.04304 64.342 9.04304H62.8458C62.8212 9.04304 62.8028 9.01859 62.8089 8.99414Z" fill="white"/>
<path d="M32.5432 11.0675V8.87797C32.5432 8.85966 32.5616 8.8413 32.5801 8.8413H35.3086C35.327 8.8413 35.3454 8.82294 35.3454 8.80458V7.9239C35.3454 7.90558 35.327 7.88722 35.3086 7.88722H32.5801C32.5616 7.88722 32.5432 7.86886 32.5432 7.8505V5.97907C32.5432 5.96071 32.5616 5.94235 32.5801 5.94235H35.6827C35.7011 5.94235 35.7195 5.92399 35.7195 5.90568V5.02498C35.7195 5.00663 35.7011 4.98828 35.6827 4.98828H32.5432H31.4825C31.4641 4.98828 31.4457 5.00663 31.4457 5.02498V5.94235V7.89331V8.84743V11.1103V12.0766C31.4457 12.0949 31.4641 12.1133 31.4825 12.1133H32.5432H35.8114C35.8298 12.1133 35.8482 12.0949 35.8482 12.0766V11.147C35.8482 11.1286 35.8298 11.1103 35.8114 11.1103H32.5739C32.5555 11.1042 32.5432 11.0919 32.5432 11.0675Z" fill="white"/>
<path d="M81.5656 12.0521L78.0215 8.40093C78.0092 8.38871 78.0092 8.36426 78.0215 8.35204L81.2102 5.04944C81.2348 5.02498 81.2164 4.98828 81.1857 4.98828H79.8797C79.8674 4.98828 79.8613 4.9944 79.8552 5.00052L77.1511 7.8016C77.1266 7.82605 77.0898 7.80769 77.0898 7.77711V5.02498C77.0898 5.00663 77.0714 4.98828 77.053 4.98828H76.0288C76.0104 4.98828 75.9919 5.00663 75.9919 5.02498V12.0827C75.9919 12.1011 76.0104 12.1194 76.0288 12.1194H77.053C77.0714 12.1194 77.0898 12.1011 77.0898 12.0827V8.97586C77.0898 8.94528 77.1327 8.92692 77.1511 8.95137L80.2167 12.1072C80.2228 12.1133 80.2351 12.1194 80.2412 12.1194H81.5472C81.5718 12.1133 81.5902 12.0705 81.5656 12.0521Z" fill="white"/>
<path d="M16.3739 1.1842L10.1748 5.77112L11.3276 3.0679L16.3739 1.1842Z" fill="#E17726" stroke="#E17726" stroke-width="0.115974" stroke-linecap="round" stroke-linejoin="round"/>
<path d="M2.07495 1.1842L8.21889 5.81393L7.12133 3.0679L2.07495 1.1842Z" fill="#E27625" stroke="#E27625" stroke-width="0.115974" stroke-linecap="round" stroke-linejoin="round"/>
<path d="M14.142 11.8196L12.4926 14.3393L16.0244 15.3118L17.0361 11.8747L14.142 11.8196Z" fill="#E27625" stroke="#E27625" stroke-width="0.115974" stroke-linecap="round" stroke-linejoin="round"/>
<path d="M1.41882 11.8747L2.42441 15.3118L5.95013 14.3393L4.30683 11.8196L1.41882 11.8747Z" fill="#E27625" stroke="#E27625" stroke-width="0.115974" stroke-linecap="round" stroke-linejoin="round"/>
<path d="M5.7601 7.56299L4.77905 9.04305L8.27409 9.20206L8.15761 5.4408L5.7601 7.56299Z" fill="#E27625" stroke="#E27625" stroke-width="0.115974" stroke-linecap="round" stroke-linejoin="round"/>
<path d="M12.6888 7.56309L10.2545 5.39807L10.1748 9.20216L13.6698 9.04314L12.6888 7.56309Z" fill="#E27625" stroke="#E27625" stroke-width="0.115974" stroke-linecap="round" stroke-linejoin="round"/>
<path d="M5.9502 14.3394L8.0656 13.3181L6.24453 11.8992L5.9502 14.3394Z" fill="#E27625" stroke="#E27625" stroke-width="0.115974" stroke-linecap="round" stroke-linejoin="round"/>
<path d="M10.3834 13.3181L12.4927 14.3394L12.2045 11.8992L10.3834 13.3181Z" fill="#E27625" stroke="#E27625" stroke-width="0.115974" stroke-linecap="round" stroke-linejoin="round"/>
<path d="M12.4927 14.3394L10.3834 13.3181L10.5551 14.6881L10.5367 15.2691L12.4927 14.3394Z" fill="#D5BFB2" stroke="#D5BFB2" stroke-width="0.115974" stroke-linecap="round" stroke-linejoin="round"/>
<path d="M5.9502 14.3394L7.91234 15.2691L7.90007 14.6881L8.0656 13.3181L5.9502 14.3394Z" fill="#D5BFB2" stroke="#D5BFB2" stroke-width="0.115974" stroke-linecap="round" stroke-linejoin="round"/>
<path d="M7.9491 10.994L6.19543 10.4803L7.43402 9.9115L7.9491 10.994Z" fill="#233447" stroke="#233447" stroke-width="0.115974" stroke-linecap="round" stroke-linejoin="round"/>
<path d="M10.4998 10.994L11.0148 9.9115L12.2596 10.4803L10.4998 10.994Z" fill="#233447" stroke="#233447" stroke-width="0.115974" stroke-linecap="round" stroke-linejoin="round"/>
<path d="M5.95016 14.3393L6.25676 11.8196L4.30688 11.8747L5.95016 14.3393Z" fill="#CC6228" stroke="#CC6228" stroke-width="0.115974" stroke-linecap="round" stroke-linejoin="round"/>
<path d="M12.192 11.8196L12.4925 14.3393L14.1419 11.8747L12.192 11.8196Z" fill="#CC6228" stroke="#CC6228" stroke-width="0.115974" stroke-linecap="round" stroke-linejoin="round"/>
<path d="M13.6698 9.04297L10.1748 9.20198L10.4998 10.994L11.0148 9.91143L12.2596 10.4802L13.6698 9.04297Z" fill="#CC6228" stroke="#CC6228" stroke-width="0.115974" stroke-linecap="round" stroke-linejoin="round"/>
<path d="M6.19546 10.4802L7.43405 9.91143L7.94913 10.994L8.27409 9.20198L4.77905 9.04297L6.19546 10.4802Z" fill="#CC6228" stroke="#CC6228" stroke-width="0.115974" stroke-linecap="round" stroke-linejoin="round"/>
<path d="M4.77917 9.04297L6.24465 11.8991L6.19557 10.4802L4.77917 9.04297Z" fill="#E27525" stroke="#E27525" stroke-width="0.115974" stroke-linecap="round" stroke-linejoin="round"/>
<path d="M12.2596 10.4802L12.2045 11.8991L13.6699 9.04297L12.2596 10.4802Z" fill="#E27525" stroke="#E27525" stroke-width="0.115974" stroke-linecap="round" stroke-linejoin="round"/>
<path d="M8.27423 9.20203L7.94922 10.994L8.36004 13.1101L8.45203 10.3213L8.27423 9.20203Z" fill="#E27525" stroke="#E27525" stroke-width="0.115974" stroke-linecap="round" stroke-linejoin="round"/>
<path d="M10.1749 9.20203L10.0032 10.3152L10.089 13.1101L10.4998 10.994L10.1749 9.20203Z" fill="#E27525" stroke="#E27525" stroke-width="0.115974" stroke-linecap="round" stroke-linejoin="round"/>
<path d="M10.4998 10.9941L10.089 13.1102L10.3833 13.3181L12.2044 11.8992L12.2596 10.4803L10.4998 10.9941Z" fill="#F5841F" stroke="#F5841F" stroke-width="0.115974" stroke-linecap="round" stroke-linejoin="round"/>
<path d="M6.19543 10.4803L6.24452 11.8992L8.06559 13.3181L8.35992 13.1102L7.9491 10.9941L6.19543 10.4803Z" fill="#F5841F" stroke="#F5841F" stroke-width="0.115974" stroke-linecap="round" stroke-linejoin="round"/>
<path d="M10.5367 15.2691L10.555 14.6881L10.3957 14.5535H8.05337L7.90007 14.6881L7.91234 15.2691L5.9502 14.3395L6.63694 14.9021L8.02883 15.8623H10.414L11.812 14.9021L12.4926 14.3395L10.5367 15.2691Z" fill="#C0AC9D" stroke="#C0AC9D" stroke-width="0.115974" stroke-linecap="round" stroke-linejoin="round"/>
<path d="M10.3833 13.318L10.089 13.1101H8.35988L8.0656 13.318L7.90002 14.688L8.05333 14.5534H10.3956L10.555 14.688L10.3833 13.318Z" fill="white" stroke="white" stroke-width="0.115974" stroke-linecap="round" stroke-linejoin="round"/>
<path d="M16.6377 6.07078L17.1589 3.53882L16.374 1.1842L10.3834 5.61824L12.6889 7.56307L15.9448 8.51105L16.6622 7.67318L16.3495 7.44686L16.8462 6.99432L16.466 6.70074L16.9627 6.32155L16.6377 6.07078Z" fill="#763E1A" stroke="#763E1A" stroke-width="0.115974" stroke-linecap="round" stroke-linejoin="round"/>
<path d="M1.29004 3.53882L1.81736 6.07078L1.48012 6.32155L1.98292 6.70074L1.60275 6.99432L2.09942 7.44686L1.7867 7.67318L2.50411 8.51105L5.76004 7.56307L8.06551 5.61824L2.07489 1.1842L1.29004 3.53882Z" fill="#763E1A" stroke="#763E1A" stroke-width="0.115974" stroke-linecap="round" stroke-linejoin="round"/>
<path d="M15.9448 8.51093L12.6889 7.56299L13.6699 9.04305L12.2045 11.8991L14.1421 11.8747H17.0362L15.9448 8.51093Z" fill="#F5841F" stroke="#F5841F" stroke-width="0.115974" stroke-linecap="round" stroke-linejoin="round"/>
<path d="M5.76002 7.56299L2.50413 8.51093L1.41882 11.8747H4.30683L6.24442 11.8991L4.77897 9.04305L5.76002 7.56299Z" fill="#F5841F" stroke="#F5841F" stroke-width="0.115974" stroke-linecap="round" stroke-linejoin="round"/>
<path d="M10.1748 9.20212L10.3833 5.61817L11.3275 3.06787H7.12122L8.06547 5.61817L8.27395 9.20212L8.35367 10.3274L8.3598 13.1102H10.0889L10.0951 10.3274L10.1748 9.20212Z" fill="#F5841F" stroke="#F5841F" stroke-width="0.115974" stroke-linecap="round" stroke-linejoin="round"/>
</g>
<defs>
<clipPath id="clip0_0_5421">
<rect width="81.1818" height="15.5756" fill="white" transform="translate(0.818115 0.712158)"/>
</clipPath>
</defs>
</svg>
